# xmcd
# 
# Track frame offsets:
#     150
#     26542
#     45082
#     63042
#     110612
#     128112
#     150060
#     170960
#     206807
#     223540
#     235400
#     262332
#     304842
#     334422
# 
# Disc length: 4728
# 
# Revision: 10
# Processed by: cddbd v1.5.2PL0 Copyright (c) Steve Scherf et al.
# Submitted via: fre:ac v1.0.31
# 
DISCID=c712760e
DTITLE=Alligator Records - Alligator Records 30th Anniversary Collection On The Stage Disc 2
DYEAR=2001
DGENRE=Blues
TTITLE0=Two Headed Man
TTITLE1=Soul Fixin' Man
TTITLE2=Jambalaya (On the Bayou)
TTITLE3=Dyin' Flu
TTITLE4=When It Rains It Pours
TTITLE5=Slow Down
TTITLE6=You Can Have My Husband
TTITLE7=I'll Take You Back
TTITLE8=Maybe Someday Baby
TTITLE9=Chicken, Gravy and Biscuits
TTITLE10=Sadie
TTITLE11=Stop
TTITLE12=It's Alright
TTITLE13=DATA
EXTD=
EXTT0=
EXTT1=
EXTT2=
EXTT3=
EXTT4=
EXTT5=
EXTT6=
EXTT7=
EXTT8=
EXTT9=
EXTT10=
EXTT11=
EXTT12=
EXTT13=
PLAYORDER=
